<svg width="671" height="200" viewBox="0 0 671 200" fill="none" xmlns="http://www.w3.org/2000/svg">
<path fill-rule="evenodd" clip-rule="evenodd" d="M501.062 38.7456V66.876C501.062 81.2951 508.316 88.5046 522.823 88.5046C529.458 88.5046 534.788 87.3104 538.813 84.9219V69.3308C536.38 70.7904 533.173 71.5202 529.193 71.5202C525.964 71.5202 523.575 70.9231 522.027 69.7289C520.523 68.4904 519.749 66.4558 519.705 63.6251V38.7456H501.062ZM501.062 6.17011V33.438H540.471V19.0411H519.705V0L501.062 6.17011ZM245.426 19.0411V86.7133H264.202V41.5985C267.652 35.4505 272.318 32.2438 278.2 31.9784C281.65 31.9784 284.194 33.0399 285.83 35.163C287.511 37.286 288.351 40.6475 288.351 45.2475V86.7133H306.331V41.5985C309.383 35.4505 314.049 32.2438 320.33 31.9784C323.78 31.9784 326.323 33.0399 327.959 35.163C329.64 37.286 330.48 40.6475 330.48 45.2475V86.7133H349.124V41.8639C349.124 33.5928 347.155 27.3342 343.219 23.0882C339.282 18.8421 333.908 16.719 327.097 16.719C322.099 16.719 317.764 17.8026 314.093 19.9699C310.466 22.093 307.37 25.6314 304.805 30.5852C303.345 25.9852 300.868 22.5353 297.374 20.2353C293.924 17.8911 289.656 16.719 284.57 16.719C279.527 16.719 275.149 17.7584 271.433 19.8372C267.718 21.9161 264.533 25.3218 261.879 30.0544V19.0411H245.426ZM361.4 54.8675C359.852 58.0079 359.078 61.6569 359.078 65.8145C359.078 71.9625 361.068 77.248 365.049 81.671C369.074 86.0498 374.514 88.2392 381.37 88.2392C387.562 88.2392 392.627 87.4431 396.563 85.8508C400.544 84.2585 404.126 81.4278 407.311 77.3586L409.102 86.7133H422.57V44.4513C422.57 26.0516 412.884 16.8517 393.511 16.8517C383.427 16.8517 374.404 18.1344 366.442 20.6997V36.9543C373.254 33.5486 381.414 31.8457 390.924 31.8457C400.079 31.8457 404.657 35.2736 404.657 42.1292V44.584C400.455 42.859 394.971 41.9966 388.204 41.9966C384.179 41.9966 380.463 42.4389 377.057 43.3235C373.696 44.2081 370.644 45.5792 367.902 47.4369C365.16 49.2503 362.992 51.7272 361.4 54.8675ZM380.64 71.9183C378.782 70.1933 377.854 68.0039 377.854 65.3501C377.854 61.5905 379.026 58.8261 381.37 57.0569C383.714 55.2877 387.341 54.4031 392.251 54.4031C397.249 54.4031 401.384 55.4425 404.657 57.5213V65.2174C402.932 68.1366 400.566 70.4144 397.558 72.051C394.551 73.6875 391.477 74.5057 388.336 74.5057C385.107 74.5057 382.542 73.6432 380.64 71.9183ZM432.857 39.1437C432.857 31.9784 435.422 26.4496 440.553 22.5574C445.728 18.6651 453.092 16.719 462.646 16.719C471.536 16.719 479.453 18.4882 486.397 22.0266V37.087C484.407 36.0255 480.824 34.9861 475.649 33.9688C470.519 32.9072 465.896 32.3765 461.783 32.3765C460.147 32.3765 458.842 32.4207 457.869 32.5092C456.896 32.5976 455.856 32.8409 454.75 33.239C453.689 33.5928 452.893 34.1899 452.362 35.0303C451.875 35.8707 451.632 36.9764 451.632 38.3476C451.632 39.6745 452.008 40.8023 452.76 41.7312C453.512 42.66 454.684 43.4561 456.276 44.1196C457.869 44.7388 459.439 45.2475 460.987 45.6455C462.535 46.0436 464.525 46.4859 466.958 46.9724C467.445 47.0609 467.798 47.1273 468.02 47.1715C470.231 47.6138 472.044 48.0119 473.46 48.3657C474.875 48.7195 476.49 49.2061 478.303 49.8253C480.116 50.4003 481.576 51.0195 482.682 51.683C483.832 52.3022 485.004 53.1204 486.198 54.1377C487.392 55.1108 488.321 56.2166 488.985 57.455C489.692 58.6492 490.245 60.0867 490.643 61.7674C491.086 63.404 491.307 65.2395 491.307 67.2741C491.307 73.8202 488.498 79.0836 482.881 83.0643C477.264 87.045 469.921 89.0353 460.854 89.0353C450.814 89.0353 441.835 86.8681 433.918 82.5335V67.1414C437.368 68.7779 441.857 70.3039 447.386 71.7192C452.915 73.0904 457.847 73.7759 462.181 73.7759C465.189 73.7759 467.644 73.2231 469.545 72.1173C471.447 71.0116 472.398 69.4414 472.398 67.4068C472.398 66.0799 471.823 64.9962 470.673 64.1559C469.568 63.2713 468.086 62.6299 466.228 62.2319C464.371 61.7896 462.247 61.3473 459.859 60.905C457.515 60.4184 455.104 59.954 452.627 59.5117C450.151 59.0694 447.718 58.3396 445.329 57.3223C442.985 56.305 440.884 55.1108 439.027 53.7397C437.169 52.3243 435.665 50.3782 434.515 47.9013C433.409 45.3802 432.857 42.461 432.857 39.1437ZM544.587 52.6118L544.72 48.233H595.142C595.142 42.9696 593.815 38.9889 591.162 36.2909C588.508 33.5928 584.925 32.2438 580.414 32.2438C576.212 32.2438 572.651 33.1947 569.732 35.0966C566.813 36.9543 564.778 39.586 563.628 42.9917H545.516C546.755 37.286 549.165 32.4207 552.748 28.3958C556.33 24.3708 560.466 21.4516 565.154 19.6382C569.843 17.7805 574.929 16.8517 580.414 16.8517C586.119 16.8517 591.117 17.7805 595.408 19.6382C599.742 21.4516 603.148 23.9728 605.625 27.2016C608.102 30.4304 609.937 34.013 611.132 37.9495C612.326 41.8417 612.923 46.0878 612.923 50.6878C612.923 53.6954 612.657 57.0127 612.127 60.6396H563.164C563.872 65.151 566.216 68.4683 570.197 70.5914C574.221 72.7144 579.308 73.7759 585.456 73.7759C591.117 73.7759 598.371 72.3827 607.217 69.5962V84.2585C601.6 87.4431 593.572 89.0353 583.134 89.0353C576.588 89.0353 570.794 88.1065 565.751 86.2488C560.753 84.3469 556.728 81.7374 553.677 78.4201C550.669 75.0586 548.391 71.2106 546.843 66.876C545.339 62.5415 544.587 57.7867 544.587 52.6118ZM625.664 19.0411V86.7133H644.44V45.5129C645.855 41.9744 648.199 39.387 651.472 37.7505C654.789 36.0697 658.549 35.2293 662.751 35.2293C665.449 35.2293 668.036 35.4947 670.513 36.0255V17.2498C670.159 17.1613 669.43 17.1171 668.324 17.1171C656.426 17.1171 648.089 21.6507 643.312 30.7179L642.117 19.0411H625.664ZM237 130.006H257.832L280.655 189.252L276.674 197.678H269.376L237 130.006ZM276.276 163.576L289.081 130.006H308.454L283.641 182.618L276.276 163.576ZM318.077 105.458C315.954 107.537 314.892 110.058 314.892 113.021C314.892 116.073 315.954 118.661 318.077 120.784C320.2 122.863 322.765 123.902 325.773 123.902C328.824 123.902 331.39 122.84 333.469 120.717C335.592 118.594 336.653 116.029 336.653 113.021C336.653 110.014 335.592 107.47 333.469 105.392C331.39 103.313 328.824 102.273 325.773 102.273C322.765 102.273 320.2 103.335 318.077 105.458ZM316.418 130.006V197.678H335.26V130.006H316.418ZM348.2 150.108C348.2 142.943 350.765 137.414 355.896 133.522C361.071 129.63 368.435 127.684 377.989 127.684C386.879 127.684 394.796 129.453 401.741 132.991V148.052C399.75 146.99 396.168 145.951 390.993 144.933C385.862 143.872 381.24 143.341 377.126 143.341C375.49 143.341 374.185 143.385 373.212 143.474C372.239 143.562 371.2 143.806 370.094 144.204C369.032 144.557 368.236 145.155 367.705 145.995C367.219 146.835 366.976 147.941 366.976 149.312C366.976 150.639 367.352 151.767 368.104 152.696C368.855 153.625 370.028 154.421 371.62 155.084C373.212 155.703 374.782 156.212 376.33 156.61C377.878 157.008 379.869 157.451 382.301 157.937C382.788 158.026 383.142 158.092 383.363 158.136C385.574 158.578 387.388 158.977 388.803 159.33C390.219 159.684 391.833 160.171 393.646 160.79C395.46 161.365 396.919 161.984 398.025 162.648C399.175 163.267 400.347 164.085 401.542 165.102C402.736 166.075 403.665 167.181 404.328 168.42C405.036 169.614 405.589 171.051 405.987 172.732C406.429 174.369 406.65 176.204 406.65 178.239C406.65 184.785 403.842 190.048 398.224 194.029C392.607 198.01 385.265 200 376.198 200C366.157 200 357.179 197.833 349.262 193.498V178.106C352.711 179.743 357.201 181.269 362.73 182.684C368.258 184.055 373.19 184.741 377.525 184.741C380.532 184.741 382.987 184.188 384.889 183.082C386.791 181.976 387.742 180.406 387.742 178.371C387.742 177.045 387.167 175.961 386.017 175.121C384.911 174.236 383.429 173.595 381.572 173.197C379.714 172.754 377.591 172.312 375.202 171.87C372.858 171.383 370.448 170.919 367.971 170.476C365.494 170.034 363.061 169.304 360.673 168.287C358.329 167.27 356.228 166.075 354.37 164.704C352.512 163.289 351.009 161.343 349.859 158.866C348.753 156.345 348.2 153.426 348.2 150.108ZM419.59 105.458C417.467 107.537 416.406 110.058 416.406 113.021C416.406 116.073 417.467 118.661 419.59 120.784C421.713 122.863 424.279 123.902 427.286 123.902C430.338 123.902 432.903 122.84 434.982 120.717C437.105 118.594 438.167 116.029 438.167 113.021C438.167 110.014 437.105 107.47 434.982 105.392C432.903 103.313 430.338 102.273 427.286 102.273C424.279 102.273 421.713 103.335 419.59 105.458ZM417.931 130.006V197.678H436.774V130.006H417.931ZM449.05 164.24C449.05 154.023 452.124 145.531 458.272 138.763C464.42 131.996 472.757 128.347 483.284 127.816V143.341C480.586 143.651 478.22 144.447 476.185 145.73C474.195 147.012 472.647 148.627 471.541 150.573C470.435 152.475 469.617 154.487 469.086 156.61C468.6 158.689 468.357 160.878 468.357 163.178C468.357 166.761 468.843 170.012 469.816 172.931C470.789 175.85 472.426 178.371 474.726 180.495C477.026 182.618 479.879 183.9 483.284 184.343V199.867C477.711 199.558 472.713 198.386 468.29 196.351C463.867 194.272 460.262 191.596 457.476 188.323C454.734 185.05 452.633 181.379 451.173 177.31C449.758 173.197 449.05 168.84 449.05 164.24ZM488.459 200V184.343C492.042 183.989 495.027 182.728 497.416 180.561C499.804 178.394 501.441 175.961 502.325 173.263C503.21 170.521 503.652 167.557 503.652 164.373C503.652 158.888 502.37 154.178 499.804 150.241C497.283 146.26 493.501 143.96 488.459 143.341V127.684C492.971 127.905 497.128 128.723 500.932 130.138C504.736 131.51 507.965 133.323 510.618 135.579C513.272 137.835 515.528 140.466 517.386 143.474C519.243 146.437 520.615 149.6 521.499 152.961C522.384 156.323 522.826 159.817 522.826 163.444C522.826 173.617 519.73 182.131 513.538 188.987C507.39 195.798 499.03 199.469 488.459 200ZM534.373 130.006V197.678H553.148V152.43C556.598 146.415 561.53 143.208 567.943 142.81C571.791 142.81 574.755 143.806 576.834 145.796C578.957 147.742 580.018 151.214 580.018 156.212V197.678H598.794V152.696C598.794 144.646 596.627 138.476 592.292 134.186C587.958 129.851 582.163 127.684 574.91 127.684C563.1 127.684 555.117 132.173 550.959 141.152V130.006H534.373ZM2.75059 38.511C2.44866 38.8128 2.03897 38.9825 1.61198 38.9825H1.61014C1.18315 38.9825 0.773402 38.8129 0.471521 38.511C0.169639 38.209 0 37.7993 0 37.3723V11.6101C0 10.7202 0.720238 10 1.61014 10H46.694C47.5839 10 48.3041 10.7202 48.3041 11.6101C48.3041 12.5 47.5839 13.2203 46.694 13.2203H3.22212V37.3723C3.22212 37.7993 3.05253 38.2091 2.75059 38.511ZM54.384 65.3277C66.9648 58.8658 80.858 55.3621 95 55.0876C111.641 55.5358 127.89 60.2488 142.189 68.7769C150.224 79.1406 154.586 91.8822 154.586 104.998C154.586 118.112 150.224 130.853 142.189 141.217C141.026 141.88 139.844 142.524 138.647 143.149L128.342 132.845C127.712 132.215 126.691 132.215 126.062 132.845C125.432 133.474 125.432 134.495 126.062 135.125L135.616 144.676C123.035 151.138 109.142 154.642 95.0002 154.916C78.3608 154.472 62.1111 149.764 47.8112 141.243C39.772 130.878 35.4089 118.133 35.4089 105.015C35.4089 91.8964 39.772 79.1518 47.8112 68.7865C48.9772 68.1238 50.1574 67.4797 51.3535 66.8544L61.6584 77.1593C62.2881 77.7889 63.3088 77.7889 63.9385 77.1593C64.5682 76.5296 64.5682 75.5089 63.9385 74.8792L54.384 65.3277ZM83.6068 72.1823C83.3567 71.5814 82.7701 71.1889 82.1189 71.1889C81.229 71.1889 80.5088 71.9091 80.5088 72.799C80.5088 73.4503 80.9012 74.0368 81.5022 74.287C82.1045 74.5357 82.7974 74.3977 83.2575 73.9377C83.7175 73.4776 83.8555 72.7847 83.6068 72.1823ZM68.8252 131.177C75.7689 138.119 85.1809 142.024 95 142.035C95.8899 142.035 96.6101 141.315 96.6101 140.425C96.6101 139.535 95.8899 138.815 95 138.815C86.0347 138.805 77.4408 135.24 71.1022 128.9C64.7624 122.561 61.1971 113.967 61.1871 105.002C61.1871 104.112 60.4668 103.392 59.5769 103.392C58.687 103.392 57.9668 104.112 57.9668 105.002C57.9782 114.821 61.883 124.233 68.8252 131.177ZM109.613 137.821C109.864 138.422 110.45 138.815 111.101 138.815C111.528 138.815 111.938 138.645 112.24 138.343C112.542 138.041 112.711 137.632 112.711 137.205C112.711 136.553 112.319 135.967 111.718 135.717C111.116 135.468 110.423 135.606 109.963 136.066C109.503 136.526 109.365 137.219 109.613 137.821ZM77.9226 122.079C82.4508 126.609 88.594 129.154 95 129.154C101.403 129.147 107.543 126.601 112.07 122.072C116.599 117.545 119.145 111.405 119.152 105.002C119.152 98.5959 116.607 92.4531 112.077 87.9244C107.549 83.3944 101.406 80.8498 95 80.8498C88.594 80.8498 82.4512 83.3943 77.9226 87.9244C73.3925 92.4527 70.8479 98.5959 70.8479 105.002C70.8479 111.408 73.3925 117.551 77.9226 122.079ZM128.813 105.002C128.813 105.892 129.533 106.612 130.423 106.612C130.85 106.612 131.26 106.442 131.562 106.14C131.864 105.839 132.033 105.429 132.033 105.002C132.022 95.1828 128.117 85.7707 121.175 78.8271C114.231 71.8849 104.819 67.9802 95 67.9687C94.1101 67.9687 93.3898 68.6889 93.3898 69.5788C93.3898 70.4687 94.1101 71.1889 95 71.1889C103.965 71.1989 112.559 74.764 118.898 81.1041C125.238 87.4427 128.803 96.037 128.813 105.002ZM148.719 137.302C154.662 127.577 157.802 116.398 157.794 105C157.804 93.6024 154.662 82.4234 148.719 72.6978C162.66 81.6918 175.298 92.5602 186.277 105C175.298 117.438 162.66 128.308 148.719 137.302ZM95 84.0663C89.4479 84.0663 84.1243 86.2717 80.1996 90.1978C76.2734 94.1224 74.0682 99.446 74.0682 104.998C74.0682 110.55 76.2735 115.874 80.1996 119.799C84.1243 123.725 89.4479 125.93 95 125.93C100.552 125.93 105.876 123.725 109.8 119.799C113.727 115.874 115.932 110.55 115.932 104.998C115.925 99.449 113.718 94.1283 109.793 90.2051C105.87 86.2804 100.549 84.0737 95 84.0663ZM95 116.269C92.0112 116.269 89.1446 115.082 87.0299 112.968C84.9166 110.854 83.7291 107.987 83.7291 104.998C83.7291 102.009 84.9166 99.1428 87.0299 97.0281C89.1446 94.9148 92.0112 93.7273 95 93.7273C97.9888 93.7273 100.855 94.9148 102.97 97.0281C105.083 99.1429 106.271 102.009 106.271 104.998C106.271 107.987 105.083 110.854 102.97 112.968C100.855 115.082 97.9888 116.269 95 116.269ZM41.2806 72.6978C35.3376 82.4234 32.1964 93.6024 32.2065 105C32.1976 116.398 35.3377 127.577 41.2806 137.302C27.3403 128.308 14.7021 117.438 3.72302 105C14.7018 92.5602 27.34 81.6918 41.2806 72.6978ZM103.053 105C103.053 109.447 99.4484 113.051 95.0019 113.051C90.5553 113.051 86.9512 109.447 86.9512 105C86.9512 100.553 90.5553 96.9493 95.0019 96.9493C99.4484 96.9493 103.053 100.553 103.053 105ZM1.61197 199.996H27.3742C28.2641 199.996 28.9843 199.276 28.9843 198.386C28.9843 197.496 28.2641 196.776 27.3742 196.776H3.22211V172.624C3.22211 171.734 2.50187 171.014 1.61197 171.014C0.722069 171.014 0.00183105 171.734 0.00183105 172.624V198.386C0.00183105 198.813 0.17147 199.223 0.473352 199.525C0.775233 199.827 1.18498 199.996 1.61197 199.996ZM186.778 172.628C186.778 171.738 187.498 171.018 188.388 171.018H188.39C188.817 171.018 189.227 171.187 189.528 171.489C189.83 171.791 190 172.201 190 172.628V198.39C190 198.817 189.83 199.227 189.528 199.528C189.227 199.83 188.817 200 188.39 200H143.306C142.416 200 141.696 199.28 141.696 198.39C141.696 197.5 142.416 196.78 143.306 196.78H186.778V172.628ZM188.388 10.0019H162.626C161.736 10.0019 161.016 10.7221 161.016 11.612C161.016 12.5019 161.736 13.2221 162.626 13.2221H186.778V37.3742C186.778 38.2641 187.498 38.9844 188.388 38.9844C189.278 38.9844 189.998 38.2641 189.998 37.3742V11.612C189.998 11.185 189.829 10.7753 189.527 10.4734C189.225 10.1715 188.815 10.0019 188.388 10.0019ZM172.287 145.255H188.388C189.278 145.255 189.998 145.976 189.998 146.865C189.998 147.755 189.278 148.476 188.388 148.476H172.287C171.397 148.476 170.676 147.755 170.676 146.865C170.676 145.976 171.397 145.255 172.287 145.255ZM1.61197 64.7447H17.7134C18.6033 64.7447 19.3235 64.0245 19.3235 63.1346C19.3235 62.2447 18.6033 61.5244 17.7134 61.5244H1.61197C0.722069 61.5244 0.00183105 62.2447 0.00183105 63.1346C0.00183105 64.0245 0.722069 64.7447 1.61197 64.7447ZM174.758 44.5622C176.267 46.0719 177.115 48.1204 177.115 50.2553C177.115 52.3902 176.267 54.4389 174.758 55.9484C173.248 57.4579 171.199 58.3061 169.064 58.3061C166.929 58.3061 164.881 57.458 163.371 55.9484C161.862 54.4387 161.014 52.3902 161.014 50.2553C161.014 48.1203 161.862 46.0717 163.371 44.5622C164.881 43.0527 166.929 42.2045 169.064 42.2045C171.199 42.2045 173.248 43.0525 174.758 44.5622ZM167.216 45.7929C165.411 46.5404 164.234 48.3016 164.234 50.2553C164.234 52.9235 166.396 55.0859 169.065 55.0859C171.018 55.0859 172.779 53.9084 173.527 52.1042C174.275 50.2984 173.862 48.2211 172.48 46.8395C171.099 45.4579 169.021 45.0454 167.216 45.7929ZM20.9336 167.794C21.3606 167.794 21.7703 167.624 22.0722 167.322C22.3742 167.02 22.5438 166.61 22.5438 166.183V161.353H27.3742C28.2641 161.353 28.9843 160.633 28.9843 159.743C28.9843 158.853 28.2641 158.133 27.3742 158.133H22.5438V153.302C22.5438 152.412 21.8235 151.692 20.9336 151.692C20.0437 151.692 19.3235 152.412 19.3235 153.302V158.133H14.4931C13.6032 158.133 12.8829 158.853 12.8829 159.743C12.8829 160.633 13.6032 161.353 14.4931 161.353H19.3235V166.183C19.3235 166.61 19.4931 167.02 19.795 167.322C20.0969 167.624 20.5066 167.794 20.9336 167.794ZM98.2202 22.8829H143.304C144.194 22.8829 144.914 23.6032 144.914 24.4931C144.914 25.383 144.194 26.1032 143.304 26.1032H98.2202C97.3303 26.1032 96.6101 25.383 96.6101 24.4931C96.6101 23.6032 97.3303 22.8829 98.2202 22.8829ZM143.304 38.9825C144.194 38.9825 144.914 38.2622 144.914 37.3723C144.914 36.4824 144.194 35.7622 143.304 35.7622H123.982C123.093 35.7622 122.372 36.4824 122.372 37.3723C122.372 38.2622 123.093 38.9825 123.982 38.9825H143.304ZM69.2378 174.234H49.9161C49.0262 174.234 48.306 173.514 48.306 172.624C48.306 171.734 49.0262 171.014 49.9161 171.014H69.2378C70.1277 171.014 70.8479 171.734 70.8479 172.624C70.8479 173.514 70.1277 174.234 69.2378 174.234ZM49.9161 187.115H91.7797C92.6696 187.115 93.3898 186.395 93.3898 185.505C93.3898 184.615 92.6696 183.895 91.7797 183.895H49.9161C49.0262 183.895 48.306 184.615 48.306 185.505C48.306 186.395 49.0262 187.115 49.9161 187.115ZM177.115 185.507C177.115 187.653 173.895 187.653 173.895 185.507C173.895 183.361 177.115 183.361 177.115 185.507ZM164.234 185.507C164.234 187.653 161.014 187.653 161.014 185.507C161.014 183.361 164.234 183.361 164.234 185.507ZM151.353 185.507C151.353 187.653 148.133 187.653 148.133 185.507C148.133 183.361 151.353 183.361 151.353 185.507ZM41.8636 24.4931C41.8636 26.6395 38.6433 26.6395 38.6433 24.4931C38.6433 22.3467 41.8636 22.3467 41.8636 24.4931ZM28.9825 24.4931C28.9825 26.6395 25.7622 26.6395 25.7622 24.4931C25.7622 22.3467 28.9825 22.3467 28.9825 24.4931ZM16.1014 24.4931C16.1014 26.6395 12.8811 26.6395 12.8811 24.4931C12.8811 22.3467 16.1014 22.3467 16.1014 24.4931ZM153.641 158.136H188.388C189.278 158.136 189.998 158.857 189.998 159.746C189.998 160.636 189.278 161.357 188.388 161.357H152.965C152.538 161.362 152.128 161.187 151.838 160.874L138.087 147.123C138.597 146.86 139.098 146.597 139.599 146.334C140.08 146.082 140.561 145.829 141.05 145.577L153.641 158.136ZM1.61196 51.8636H36.3593L48.95 64.4543C49.8858 63.9406 50.8228 63.456 51.7587 62.9719L51.9446 62.8758L38.1622 49.125V49.1265C37.8718 48.8131 37.4621 48.6377 37.0351 48.6434H1.61203C0.72213 48.6434 0.00189209 49.3637 0.00189209 50.2536C0.00189209 51.1435 0.722057 51.8636 1.61196 51.8636Z" fill="black"/>
</svg>
